<mxfile host="Electron" agent="Mozilla/5.0 (Macintosh; Intel Mac OS X 10_15_7) AppleWebKit/537.36 (KHTML, like Gecko) draw.io/24.7.5 Chrome/126.0.6478.183 Electron/31.3.0 Safari/537.36" version="24.7.5">
  <diagram name="第 1 页" id="RveGcFJwbYmGBi1FQ_-q">
    <mxGraphModel dx="1194" dy="877" grid="1" gridSize="10" guides="1" tooltips="1" connect="1" arrows="1" fold="1" page="1" pageScale="1" pageWidth="827" pageHeight="1169" math="0" shadow="0">
      <root>
        <mxCell id="0" />
        <mxCell id="1" parent="0" />
        <mxCell id="rNFB2UJa490UFcdLVCNd-3" style="edgeStyle=orthogonalEdgeStyle;rounded=0;orthogonalLoop=1;jettySize=auto;html=1;entryX=0.5;entryY=0;entryDx=0;entryDy=0;curved=1;" edge="1" parent="1" source="rNFB2UJa490UFcdLVCNd-1" target="rNFB2UJa490UFcdLVCNd-2">
          <mxGeometry relative="1" as="geometry" />
        </mxCell>
        <mxCell id="rNFB2UJa490UFcdLVCNd-4" value="获取内存布局信息" style="edgeLabel;html=1;align=center;verticalAlign=middle;resizable=0;points=[];" vertex="1" connectable="0" parent="rNFB2UJa490UFcdLVCNd-3">
          <mxGeometry x="-0.2444" y="-5" relative="1" as="geometry">
            <mxPoint as="offset" />
          </mxGeometry>
        </mxCell>
        <mxCell id="rNFB2UJa490UFcdLVCNd-1" value="WriteMemory" style="ellipse;whiteSpace=wrap;html=1;" vertex="1" parent="1">
          <mxGeometry x="310" y="60" width="120" height="60" as="geometry" />
        </mxCell>
        <mxCell id="rNFB2UJa490UFcdLVCNd-2" value="&lt;div&gt;m_err =&lt;/div&gt;&lt;div&gt;&amp;nbsp; &amp;nbsp; &amp;nbsp; ::mach_vm_region_recurse(m_task, &amp;amp;m_start, &amp;amp;m_size, &amp;amp;m_depth,&lt;/div&gt;&lt;div&gt;&amp;nbsp; &amp;nbsp; &amp;nbsp; &amp;nbsp; &amp;nbsp; &amp;nbsp; &amp;nbsp; &amp;nbsp; &amp;nbsp; &amp;nbsp; &amp;nbsp; &amp;nbsp; &amp;nbsp; &amp;nbsp; &amp;nbsp; &amp;nbsp;(vm_region_recurse_info_t)&amp;amp;m_data, &amp;amp;info_size);&lt;/div&gt;&lt;div&gt;&lt;br&gt;&lt;/div&gt;" style="rounded=1;whiteSpace=wrap;html=1;align=left;" vertex="1" parent="1">
          <mxGeometry x="130" y="200" width="460" height="60" as="geometry" />
        </mxCell>
        <mxCell id="rNFB2UJa490UFcdLVCNd-9" style="edgeStyle=orthogonalEdgeStyle;rounded=0;orthogonalLoop=1;jettySize=auto;html=1;entryX=0.5;entryY=0;entryDx=0;entryDy=0;curved=1;" edge="1" parent="1" source="rNFB2UJa490UFcdLVCNd-5" target="rNFB2UJa490UFcdLVCNd-8">
          <mxGeometry relative="1" as="geometry" />
        </mxCell>
        <mxCell id="rNFB2UJa490UFcdLVCNd-5" value="&lt;div&gt;vm_prot_t prot =&amp;nbsp;VM_PROT_READ | VM_PROT_WRITE;&amp;nbsp;&lt;br&gt;m_err = ::mach_vm_protect(m_task, addr, prot_size, 0, prot);&lt;/div&gt;&lt;div&gt;&lt;span style=&quot;background-color: initial;&quot;&gt;if (m_err.Fail()) {&lt;/span&gt;&lt;br&gt;&lt;/div&gt;&lt;div&gt;&amp;nbsp; &amp;nbsp; &amp;nbsp; &amp;nbsp; &amp;nbsp; // Try again with the ability to create a copy on write region&lt;/div&gt;&lt;div&gt;&amp;nbsp; &amp;nbsp; &amp;nbsp; &amp;nbsp; &amp;nbsp; m_err = ::mach_vm_protect(m_task, addr, prot_size, 0,&lt;/div&gt;&lt;div&gt;&amp;nbsp; &amp;nbsp; &amp;nbsp; &amp;nbsp; &amp;nbsp; &amp;nbsp; &amp;nbsp; &amp;nbsp; &amp;nbsp; &amp;nbsp; &amp;nbsp; &amp;nbsp; &amp;nbsp; &amp;nbsp; &amp;nbsp; &amp;nbsp; &amp;nbsp; &amp;nbsp; prot | VM_PROT_COPY);&lt;/div&gt;&lt;div&gt;&lt;br&gt;&lt;/div&gt;" style="rounded=1;whiteSpace=wrap;html=1;align=left;" vertex="1" parent="1">
          <mxGeometry x="240" y="390" width="550" height="130" as="geometry" />
        </mxCell>
        <mxCell id="rNFB2UJa490UFcdLVCNd-6" style="edgeStyle=orthogonalEdgeStyle;rounded=0;orthogonalLoop=1;jettySize=auto;html=1;entryX=0.456;entryY=0.023;entryDx=0;entryDy=0;entryPerimeter=0;elbow=vertical;curved=1;" edge="1" parent="1" source="rNFB2UJa490UFcdLVCNd-2" target="rNFB2UJa490UFcdLVCNd-5">
          <mxGeometry relative="1" as="geometry" />
        </mxCell>
        <mxCell id="rNFB2UJa490UFcdLVCNd-7" value="设置内存可读可写" style="edgeLabel;html=1;align=center;verticalAlign=middle;resizable=0;points=[];" vertex="1" connectable="0" parent="rNFB2UJa490UFcdLVCNd-6">
          <mxGeometry x="-0.2797" y="8" relative="1" as="geometry">
            <mxPoint as="offset" />
          </mxGeometry>
        </mxCell>
        <mxCell id="rNFB2UJa490UFcdLVCNd-11" style="edgeStyle=orthogonalEdgeStyle;rounded=0;orthogonalLoop=1;jettySize=auto;html=1;curved=1;" edge="1" parent="1" source="rNFB2UJa490UFcdLVCNd-8" target="rNFB2UJa490UFcdLVCNd-10">
          <mxGeometry relative="1" as="geometry" />
        </mxCell>
        <mxCell id="rNFB2UJa490UFcdLVCNd-8" value="MaxBytesLeftInPage" style="rounded=1;whiteSpace=wrap;html=1;" vertex="1" parent="1">
          <mxGeometry x="350" y="600" width="120" height="40" as="geometry" />
        </mxCell>
        <mxCell id="rNFB2UJa490UFcdLVCNd-13" style="edgeStyle=orthogonalEdgeStyle;rounded=0;orthogonalLoop=1;jettySize=auto;html=1;curved=1;" edge="1" parent="1" source="rNFB2UJa490UFcdLVCNd-10" target="rNFB2UJa490UFcdLVCNd-12">
          <mxGeometry relative="1" as="geometry" />
        </mxCell>
        <mxCell id="rNFB2UJa490UFcdLVCNd-10" value="&lt;div&gt;&amp;nbsp;::mach_vm_write(task, curr_addr, (pointer_t)curr_data, curr_data_count);&lt;/div&gt;&lt;div&gt;&lt;br&gt;&lt;/div&gt;" style="rounded=1;whiteSpace=wrap;html=1;align=left;" vertex="1" parent="1">
          <mxGeometry x="400" y="710" width="220" height="60" as="geometry" />
        </mxCell>
        <mxCell id="rNFB2UJa490UFcdLVCNd-12" value="RestoreProtections" style="rounded=1;whiteSpace=wrap;html=1;" vertex="1" parent="1">
          <mxGeometry x="440" y="850" width="120" height="60" as="geometry" />
        </mxCell>
      </root>
    </mxGraphModel>
  </diagram>
</mxfile>
